<svg width="18" height="19" fill="none" xmlns="http://www.w3.org/2000/svg"><path fill-rule="evenodd" clip-rule="evenodd" d="M3.65 2.42c-.16 0-.31.01-.46.05-.2-.44-.46-.84-.76-1.14C1.92.82 1.1.6 0 .6v1.8c.68 0 1.07.1 1.16.2.34.33.63 1.02.63 1.6l.01.13.88 6.18A2.8 2.8 0 0 0 0 13.17v.94a2.82 2.82 0 0 0 2.64 2.7h.2a2.7 2.7 0 0 0 5.08 0h2.1a2.7 2.7 0 0 0 5.23-.9 2.7 2.7 0 0 0-5.23-.9h-2.1a2.7 2.7 0 0 0-5.08 0H2.7c-.46-.02-.87-.43-.9-.95v-.85a.99.99 0 0 1 .94-.9h10.83l.13-.04a2.36 2.36 0 0 0 1.48-1.4l.1-.18.3-.61a1353.83 1353.83 0 0 0 2.29-4.6c.54-1.21-.56-2.15-1.68-2.17l-12.53-.9Zm9.6 8.1H4.58a.15.15 0 0 1-.11-.13L3.6 4.22l12.45.89-1.14 2.28v.02l-.94 1.86-.3.6-.12.24-.05.1a.56.56 0 0 1-.26.3Zm-.7 6.3a.9.9 0 1 0 0-1.8.9.9 0 0 0 0 1.8Zm-6.27-.9a.9.9 0 1 1-1.8 0 .9.9 0 0 1 1.8 0Z" fill="#fff" opacity=".6"/></svg>