<svg width="16" height="17" fill="none" xmlns="http://www.w3.org/2000/svg"><path fill-rule="evenodd" clip-rule="evenodd" d="M8 16.61a8 8 0 1 1 0-16 8 8 0 0 1 0 16Zm5.38-4.27a6.55 6.55 0 1 0-10.76 0C3.44 11.26 5.36 10.8 8 10.8c2.64 0 4.56.46 5.38 1.54Zm-1.04 1.18c-.21-.77-1.74-1.27-4.34-1.27-2.6 0-4.13.5-4.34 1.27a6.52 6.52 0 0 0 8.68 0ZM8 4.25a2.8 2.8 0 0 0-2.9 2.91c0 2.5 1.27 3.64 2.9 3.64 1.61 0 2.9-1.1 2.9-3.5 0-1.65-1.14-3.05-2.9-3.05ZM6.55 7.16c0 1.65.6 2.18 1.45 2.18.86 0 1.45-.5 1.45-2.03 0-.91-.57-1.6-1.45-1.6-.92 0-1.45.59-1.45 1.45Z" fill="#fff" opacity=".8"/></svg>