<svg width="70" height="70" fill="none" xmlns="http://www.w3.org/2000/svg"><mask id="a" style="mask-type:alpha" maskUnits="userSpaceOnUse" x="0" y="0" width="70" height="70"><path fill="#C4C4C4" d="M0 0h70v70H0z"/></mask><g mask="url(#a)"><path fill="#EE3643" d="m22.21-23 70.71 70.7-21.21 21.22L1-1.78z"/><path d="m37.47 13.33.55-1.63-.05-.05-.93 1.25-3.62 3.61-1.28-1.28 6.98-6.98.99.99-1.07 6.31-.54 1.59.05.05.9-1.22 3.64-3.65 1.3 1.3-6.99 6.97-.99-.99 1.06-6.27ZM47 16.22l4.1 4.1-1.2 1.21-2.76-2.75-1.6 1.61 2.5 2.5-1.21 1.22-2.5-2.5-1.7 1.68 2.8 2.8-1.2 1.21-4.16-4.15 6.93-6.93Zm4.51 12.25-1.1 1.36.04.04 1.39-1.1 5.06-2.65.89.89-2.68 5.06-1.1 1.36.05.04 1.4-1.1 4.69-3 1.37 1.37-8.89 5.07-.9-.91 2.6-5.09.9-1.23-.05-.05-1.24.9-5.07 2.62-.96-.96 5.08-8.88 1.47 1.47-2.95 4.8Z" fill="#fff"/></g></svg>